<svg xmlns="http://www.w3.org/2000/svg" width="1000" height="560" viewBox="0 0 1000 560"><rect width="100%" height="100%" fill="white"/><text x="40" y="30" font-family="Arial" font-size="18" font-weight="bold">Accidents by Hour</text><rect x="75.6" y="400.5" width="26.3" height="69.5" fill="#4e79a7"/><text x="88.8" y="505" text-anchor="middle" font-family="Arial" font-size="11">0</text><rect x="113.1" y="409.3" width="26.3" height="60.7" fill="#4e79a7"/><rect x="150.6" y="411.6" width="26.3" height="58.4" fill="#4e79a7"/><text x="163.8" y="505" text-anchor="middle" font-family="Arial" font-size="11">2</text><rect x="188.1" y="417.5" width="26.3" height="52.5" fill="#4e79a7"/><rect x="225.6" y="362.3" width="26.3" height="107.7" fill="#4e79a7"/><text x="238.8" y="505" text-anchor="middle" font-family="Arial" font-size="11">4</text><rect x="263.1" y="320.0" width="26.3" height="150.0" fill="#4e79a7"/><rect x="300.6" y="200.2" width="26.3" height="269.8" fill="#4e79a7"/><text x="313.8" y="505" text-anchor="middle" font-family="Arial" font-size="11">6</text><rect x="338.1" y="74.8" width="26.3" height="395.2" fill="#4e79a7"/><rect x="375.6" y="77.2" width="26.3" height="392.8" fill="#4e79a7"/><text x="388.8" y="505" text-anchor="middle" font-family="Arial" font-size="11">8</text><rect x="413.1" y="230.1" width="26.3" height="239.9" fill="#4e79a7"/><rect x="450.6" y="245.5" width="26.3" height="224.5" fill="#4e79a7"/><text x="463.8" y="505" text-anchor="middle" font-family="Arial" font-size="11">10</text><rect x="488.1" y="240.4" width="26.3" height="229.6" fill="#4e79a7"/><rect x="525.6" y="246.4" width="26.3" height="223.6" fill="#4e79a7"/><text x="538.8" y="505" text-anchor="middle" font-family="Arial" font-size="11">12</text><rect x="563.1" y="221.5" width="26.3" height="248.5" fill="#4e79a7"/><rect x="600.6" y="193.6" width="26.3" height="276.4" fill="#4e79a7"/><text x="613.8" y="505" text-anchor="middle" font-family="Arial" font-size="11">14</text><rect x="638.1" y="144.8" width="26.3" height="325.2" fill="#4e79a7"/><rect x="675.6" y="102.4" width="26.3" height="367.6" fill="#4e79a7"/><text x="688.8" y="505" text-anchor="middle" font-family="Arial" font-size="11">16</text><rect x="713.1" y="104.5" width="26.3" height="365.5" fill="#4e79a7"/><rect x="750.6" y="192.1" width="26.3" height="277.9" fill="#4e79a7"/><text x="763.8" y="505" text-anchor="middle" font-family="Arial" font-size="11">18</text><rect x="788.1" y="279.9" width="26.3" height="190.1" fill="#4e79a7"/><rect x="825.6" y="326.8" width="26.3" height="143.2" fill="#4e79a7"/><text x="838.8" y="505" text-anchor="middle" font-family="Arial" font-size="11">20</text><rect x="863.1" y="350.4" width="26.3" height="119.6" fill="#4e79a7"/><rect x="900.6" y="364.9" width="26.3" height="105.1" fill="#4e79a7"/><text x="913.8" y="505" text-anchor="middle" font-family="Arial" font-size="11">22</text><rect x="938.1" y="392.2" width="26.3" height="77.8" fill="#4e79a7"/><line x1="70" y1="470" x2="970" y2="470" stroke="#333"/><line x1="70" y1="55" x2="70" y2="470" stroke="#333"/></svg>